<svg width="500" height="500" viewBox="0 0 500 500" fill="none" xmlns="http://www.w3.org/2000/svg">
<g clip-path="url(#clip0_2002_2)">
<rect x="50" y="50" width="400" height="400" rx="50" fill="#3B82F6"/>
<rect x="100" y="105" width="300" height="70" rx="20" fill="white"/>
<rect x="100" y="210" width="220" height="70" rx="20" fill="white"/>
<path d="M291.949 396V250.492H349.176C360.243 250.492 369.651 252.608 377.398 256.84C385.211 261.072 391.168 266.898 395.27 274.32C399.371 281.742 401.422 290.271 401.422 299.906C401.422 309.542 399.339 318.038 395.172 325.395C391.005 332.751 384.983 338.513 377.105 342.68C369.228 346.781 359.69 348.832 348.492 348.832H322.613V396H291.949ZM322.613 324.223H343.414C352.333 324.223 358.941 321.977 363.238 317.484C367.6 312.927 369.781 307.068 369.781 299.906C369.781 292.615 367.6 286.755 363.238 282.328C358.876 277.901 352.236 275.688 343.316 275.688H322.613V324.223Z" fill="#FF9900"/>
</g>
<defs>
<clipPath id="clip0_2002_2">
<rect width="500" height="500" fill="white"/>
</clipPath>
</defs>
</svg>
